<?xml version="1.0" encoding="UTF-8"?>
<!DOCTYPE svg PUBLIC "-//W3C//DTD SVG 1.1//EN" "http://www.w3.org/Graphics/SVG/1.1/DTD/svg11.dtd">
<!-- Creator: CorelDRAW -->
<svg xmlns="http://www.w3.org/2000/svg" xml:space="preserve" width="63.509mm" height="63.509mm" style="shape-rendering:geometricPrecision; text-rendering:geometricPrecision; image-rendering:optimizeQuality; fill-rule:evenodd; clip-rule:evenodd" viewBox="0 0 63.509 63.509">
 <defs>
  <style type="text/css">
   <![CDATA[
    .fil0 {fill:#1F1A17}
   ]]>
  </style>
 </defs>
 <g id="Layer_x0020_1">
  <metadata id="CorelCorpID_0Corel-Layer"/>
  <g id="_150956456">
   <path id="_151090152" class="fil0 sun" d="M 31.6671 7.4461 c 4.8933,0 8.861,3.9677 8.861,8.8598 0,4.8932 -3.9677,8.8609 -8.861,8.8609 -4.892,0 -8.8597,-3.9677 -8.8597,-8.8609 0,-4.8921 3.9677,-8.8598 8.8597,-8.8598 z"/>
   <!--
   <path id="_151000000" class="fil0 sun hole" d="m0.0006 4.3597c2.4855,0 4.5007,2.0151 4.5007,4.5007 0,2.4855 -2.0152,4.5006 -4.5007,4.5006 -2.4855,0 -4.5006,-2.0151 -4.5006,-4.5006 0,-2.4856 2.0151,-4.5007 4.5006,-4.5007z"/>
   -->
   <path id="_150956480" class="fil0 legs" d="M 44.2053 53.9278 c -2.4381,4.0631 -2.4381,4.0631 -2.4381,4.0631 l 0 -0.0656 12.9247 0 -23.0242 -31.2605 c -23.0047,31.2605 -23.0047,31.2605 -23.0047,31.2605 l 12.9071 0 0 0.0656 c 0,0 0,0 -2.4381,-4.0631 l -0.0049 0.0067 c 3.1437,-4.2692 7.2299,-9.8181 12.5406,-17.0292 l 0 0 c 5.3108,7.2111 9.3982,12.7594 12.5425,17.0286 l -0.0049 -0.0061 z"/>
  </g>
 </g>
</svg>
