<?xml version="1.0" encoding="UTF-8" standalone="no"?>
<svg id="Aquarius"
	xmlns="http://www.w3.org/2000/svg"
	version="1.0"
	width="153.48601pt"
	height="172.51184pt"
	viewBox="0 0 153.48601 172.51184"
>
	<path d="m 0.38842302,171.69175 14.25003198,-12.06186 80.3,0.1 37.300005,-34.1 20.69102,-61.709746 -33.69102,6.009745 c 0,0 -12.1,-12.199997 -12.1,-12.199997 l 1.8,-36.600003 10.59446,-17.1430364 -38.094465,-3.55696398 7.3,18.70000038 -1.4,46.6 26.200005,27.7 9.24386,-2.43145 -7.14386,21.831451 c 0,0 -22.281225,17.88338 -22.281225,17.16129 0,-0.72208 -9.56767,-21.84315 -9.56767,-21.84315 0,0 -22.92628,-15.885931 -22.92628,-17.510641 0,-1.62469 -7.76245,-22.92628 -7.76245,-22.92628 l -18.232717,27.61986 30.147167,23.648381 7.76244,19.85741 -55.13927,2.09313 -16.6,-9.1 z" />
</svg>
