<?xml version="1.0" encoding="UTF-8" standalone="no"?>
<svg id="symbol-virgo"
	xmlns="http://www.w3.org/2000/svg"
	viewBox="0 0 169.45236 173.57417"
	height="173.57417pt"
	width="169.45236pt"
	version="1.0"
>
	<path d="M 144.11281,0.75041975 138.9595,16.602958 82.246606,59.726495 63.263702,56.429128 72.747099,25.626395 91.218773,31.920829 117.38675,3.4559854 68.547392,2.9271769 25.47952,36.643485 39.010282,65.875902 32.245633,99.063401 12.459989,145.68498 0.63577089,158.63714 34.889676,172.98821 33.266629,154.59123 47.2471,117.226 l 12.700192,4.80029 14.421389,-3.0498 45.571289,26.29541 8.55175,10.8501 16.97754,-26.55029 -15.31787,-1.53223 -40.404784,-21.9126 6.200685,-33.600585 55.999509,-41.399411 16.75488,-1.759278 z M 60.455597,23.856864 50.367212,58.32464 40.946807,39.026786 Z m -0.766118,44.699703 18.125977,2.680665 -7.403317,35.358398 -18.382327,-2.93701 z" />
</svg>
