<?xml version="1.0" encoding="UTF-8" standalone="no"?>
<svg id="Orion"
	xmlns="http://www.w3.org/2000/svg"
	version="1.0"
	width="124.78168pt"
	height="174.19746pt"
	viewBox="0 0 124.78168 174.19746"
>
	<path d="M 55.337865,0.55786515 40.715797,12.472904 l 9.386715,17.329101 -1.7373,51.200684 -9.635745,-5.528325 -12.095212,16.428225 14.80371,3.609375 -26.173829,33.791016 -14.79931425,1.69922 4.59960885,18.89941 12.6005824,-3.59912 60.999028,15.59912 6.45996,11.77735 L 105.16159,161.94409 93.464819,149.10181 86.618136,105.79663 98.481906,107.427 101.7324,88.111571 87.595191,88.517336 109.31296,37.20386 124.29685,33.232669 117.66404,13.802982 103.71726,20.775638 63.964334,14.202884 Z M 66.464819,30.902102 94.063941,36.201907 72.848609,87.207761 63.025364,85.400149 Z m -8.780272,69.123048 13.360837,2.88427 3.788085,40.80176 -42.061521,-10.46924 z" />
</svg>
