<?xml version="1.0" encoding="UTF-8" standalone="no"?>
<svg
   xmlns:dc="http://purl.org/dc/elements/1.1/"
   xmlns:cc="http://creativecommons.org/ns#"
   xmlns:rdf="http://www.w3.org/1999/02/22-rdf-syntax-ns#"
   xmlns:svg="http://www.w3.org/2000/svg"
   xmlns="http://www.w3.org/2000/svg"
   xmlns:sodipodi="http://sodipodi.sourceforge.net/DTD/sodipodi-0.dtd"
   xmlns:inkscape="http://www.inkscape.org/namespaces/inkscape"
   version="1.0"
   width="241pt"
   height="241pt"
   viewBox="0 0 241 241"
   preserveAspectRatio="xMidYMid meet"
   id="svg12"
   sodipodi:docname="37 Sextans.svg"
   inkscape:version="0.92.4 (5da689c313, 2019-01-14)">
  <defs
     id="defs16" />
  <sodipodi:namedview
     pagecolor="#ffffff"
     bordercolor="#666666"
     borderopacity="1"
     objecttolerance="10"
     gridtolerance="10"
     guidetolerance="10"
     inkscape:pageopacity="0"
     inkscape:pageshadow="2"
     inkscape:window-width="1920"
     inkscape:window-height="1171"
     id="namedview14"
     showgrid="false"
     inkscape:zoom="4.1546191"
     inkscape:cx="153.49082"
     inkscape:cy="164.36454"
     inkscape:window-x="0"
     inkscape:window-y="0"
     inkscape:window-maximized="1"
     inkscape:current-layer="svg12" />
  <metadata
     id="metadata2">
Created by Potrace Professional 1.0c
<rdf:RDF>
  <cc:Work
     rdf:about="">
    <dc:format>image/svg+xml</dc:format>
    <dc:type
       rdf:resource="http://purl.org/dc/dcmitype/StillImage" />
  </cc:Work>
</rdf:RDF>
</metadata>
  <g
     transform="translate(0,241) scale(0.100000,-0.100000)"
     fill="#000000"
     stroke="none"
     id="g10"
     style="fill:#0000ff;fill-opacity:1">
    <path
       d="M1055 2053 c-152 -5 -153 -7 -79 -155 31 -62 62 -116 68 -120 28 -19 49 -1 131 109 78 103 87 119 79 142 -11 29 -11 30 -199 24z"
       id="path4"
       style="fill:#0000ff;fill-opacity:1" />
    <path
       d="M1014 1583 c-16 -11 -35 -244 -22 -260 7 -8 35 -13 73 -13 63 0 64 0 73 33 16 51 24 224 11 232 -17 11 -123 17 -135 8z"
       id="path6"
       style="fill:#0000ff;fill-opacity:1" />
    <path
       d="M950 1089 c-139 -86 -134 -82 -121 -107 8 -15 29 -23 78 -32 l68 -13 171 -206 c169 -204 171 -207 189 -281 22 -91 31 -110 53 -110 9 0 56 42 104 94 65 70 86 98 82 113 -4 13 -32 33 -82 57 -76 35 -78 37 -235 228 l-158 193 3 65 c3 59 1 65 -17 68 -11 1 -71 -29 -135 -69z"
       id="path8"
       style="fill:#0000ff;fill-opacity:1" />
  </g>
  <path
     style="fill:none;stroke:#000000;stroke-width:0.75px;stroke-linecap:butt;stroke-linejoin:miter;stroke-opacity:1"
     d="M 137.91878,207.24239 160.12298,185.9408 143.15391,178.53939 109.9,138.5 l 0.39892,-14.47823 -31.410825,18.9548 18.611902,4.32343 33.739473,39.72393 z"
     id="path823"
     inkscape:connector-curvature="0" />
  <path
     style="fill:none;stroke:#000000;stroke-width:0.75px;stroke-linecap:butt;stroke-linejoin:miter;stroke-opacity:1"
     d="M 122.75493,113.55149 123.65754,77.988665 101.4,82.7 98.203947,109.58001 Z"
     id="path825"
     inkscape:connector-curvature="0"
     sodipodi:nodetypes="ccccc" />
  <path
     style="fill:none;stroke:#000000;stroke-width:0.75px;stroke-linecap:butt;stroke-linejoin:miter;stroke-opacity:1"
     d="M 82.498533,35.746525 130.33686,35.385481 100.91178,68.962565 Z"
     id="path827"
     inkscape:connector-curvature="0"
     sodipodi:nodetypes="cccc" />
</svg>
