<?xml version="1.0" encoding="UTF-8" standalone="no"?>
<svg
	xmlns:dc="http://purl.org/dc/elements/1.1/"
	xmlns:cc="http://creativecommons.org/ns#"
	xmlns:rdf="http://www.w3.org/1999/02/22-rdf-syntax-ns#"
	xmlns:svg="http://www.w3.org/2000/svg"
	xmlns="http://www.w3.org/2000/svg"
	xmlns:xlink="http://www.w3.org/1999/xlink"
	viewBox="0 0 241 241"
	height="241pt"
	width="241pt"
	version="1.0"
>
	<path d="M 49.6,166.1 85.715833,201.49284 84.700003,165 Z" />
	<path d="m 83,155.2 41.06104,-27.51591 9.64513,15.04513 -31.21483,22.36129 c 0,0 -4.874088,3.47505 -7.220875,3.33966 -2.346787,-0.13539 -4.964355,-3.97149 -4.964355,-3.97149 z" />
	<path d="M 74.1,128.2 90.757941,76.397507 102.2,98.6 l 38.97902,6.13543 1.8509,-1.72325 L 154,51.6 149.73146,26.487022 187.96212,36.379765 177.0482,52.5911 173.02728,56.101428 163.9,118.6 l 9.8,53.2 15.4,17.1 -40.70885,8.69957 3.76563,-16.72192 0.25529,-9.63745 L 142.9,126.2 99.899997,116.8 79.205773,126.88241 Z" />
</svg>
